MFile 1 18 96
MTrk
0 TimeSig 4/4 24 8
0 Tempo 500000
0 Meta TrkEnd
TrkEnd
MTrk
0 Meta TrkName "00: Clap_DP50_warm_Tape_st"
0 Meta InstrName "00: Clap_DP50_warm_Tape_st"
3072 On ch=1 n=48 v=64
3840 On ch=1 n=48 v=80
3924 Off ch=1 n=48 v=0
4608 On ch=1 n=48 v=127
4692 Off ch=1 n=48 v=0
5376 On ch=1 n=48 v=127
5460 Off ch=1 n=48 v=0
6228 Off ch=1 n=48 v=0
6228 Meta TrkEnd
TrkEnd
MTrk
0 Meta TrkName "01: chip_kick_4"
0 Meta InstrName "01: chip_kick_4"
576 On ch=2 n=12 v=127
852 Off ch=2 n=12 v=0
1344 On ch=2 n=12 v=127
1620 Off ch=2 n=12 v=0
2112 On ch=2 n=12 v=127
2388 Off ch=2 n=12 v=0
2880 On ch=2 n=12 v=127
3156 Off ch=2 n=12 v=0
3648 On ch=2 n=12 v=127
3924 Off ch=2 n=12 v=0
4416 On ch=2 n=12 v=127
4692 Off ch=2 n=12 v=0
5184 On ch=2 n=12 v=127
5460 Off ch=2 n=12 v=0
5952 On ch=2 n=12 v=127
6228 Off ch=2 n=12 v=0
6228 Meta TrkEnd
TrkEnd
MTrk
0 Meta TrkName "02: biab-crunk-kit_03"
0 Meta InstrName "02: biab-crunk-kit_03"
1728 On ch=3 n=48 v=127
1824 On ch=3 n=48 v=127
1824 Off ch=3 n=48 v=0
2388 Off ch=3 n=48 v=0
2496 On ch=3 n=48 v=127
2592 On ch=3 n=48 v=127
2592 Off ch=3 n=48 v=0
3072 On ch=3 n=48 v=127
3156 Off ch=3 n=48 v=0
3264 Off ch=3 n=48 v=0
3264 On ch=3 n=48 v=127
3360 On ch=3 n=48 v=127
3360 Off ch=3 n=48 v=0
3552 Off ch=3 n=48 v=0
3552 On ch=3 n=48 v=127
3840 On ch=3 n=48 v=127
3924 Off ch=3 n=48 v=0
4032 Off ch=3 n=48 v=0
4032 On ch=3 n=48 v=127
4128 Off ch=3 n=48 v=0
4128 On ch=3 n=48 v=127
4320 On ch=3 n=48 v=127
4320 Off ch=3 n=48 v=0
4608 On ch=3 n=48 v=127
4692 Off ch=3 n=48 v=0
4800 On ch=3 n=48 v=127
4800 Off ch=3 n=48 v=0
4896 On ch=3 n=48 v=127
4896 Off ch=3 n=48 v=0
5088 Off ch=3 n=48 v=0
5088 On ch=3 n=48 v=127
5376 On ch=3 n=48 v=127
5460 Off ch=3 n=48 v=0
5568 Off ch=3 n=48 v=0
5568 On ch=3 n=48 v=127
5664 Off ch=3 n=48 v=0
5664 On ch=3 n=48 v=127
5856 On ch=3 n=48 v=127
5856 Off ch=3 n=48 v=0
6144 On ch=3 n=48 v=127
6228 Off ch=3 n=48 v=0
6432 Off ch=3 n=48 v=0
6432 On ch=3 n=48 v=64
6528 Off ch=3 n=48 v=0
6528 On ch=3 n=48 v=96
6912 On ch=3 n=48 v=127
6996 Off ch=3 n=48 v=0
7200 Off ch=3 n=48 v=0
7200 On ch=3 n=48 v=64
7296 On ch=3 n=48 v=96
7296 Off ch=3 n=48 v=0
7680 On ch=3 n=48 v=127
7764 Off ch=3 n=48 v=0
7968 Off ch=3 n=48 v=0
7968 On ch=3 n=48 v=64
8064 On ch=3 n=48 v=96
8064 Off ch=3 n=48 v=0
8448 On ch=3 n=48 v=127
8532 Off ch=3 n=48 v=0
8736 On ch=3 n=48 v=64
8736 Off ch=3 n=48 v=0
8832 Off ch=3 n=48 v=0
8832 On ch=3 n=48 v=96
9216 On ch=3 n=48 v=127
9300 Off ch=3 n=48 v=0
9504 Off ch=3 n=48 v=0
9504 On ch=3 n=48 v=64
9600 Off ch=3 n=48 v=0
9600 On ch=3 n=48 v=96
9984 On ch=3 n=48 v=127
10068 Off ch=3 n=48 v=0
10272 Off ch=3 n=48 v=0
10272 On ch=3 n=48 v=64
10368 Off ch=3 n=48 v=0
10368 On ch=3 n=48 v=96
10836 Off ch=3 n=48 v=0
11520 On ch=3 n=48 v=127
11808 On ch=3 n=48 v=64
11808 Off ch=3 n=48 v=0
11904 Off ch=3 n=48 v=0
11904 On ch=3 n=48 v=96
12288 On ch=3 n=48 v=127
12372 Off ch=3 n=48 v=0
12576 On ch=3 n=48 v=64
12576 Off ch=3 n=48 v=0
12672 On ch=3 n=48 v=96
12672 Off ch=3 n=48 v=0
13056 On ch=3 n=48 v=127
13140 Off ch=3 n=48 v=0
13344 Off ch=3 n=48 v=0
13344 On ch=3 n=48 v=64
13440 On ch=3 n=48 v=96
13440 Off ch=3 n=48 v=0
13824 On ch=3 n=48 v=127
13908 Off ch=3 n=48 v=0
14112 Off ch=3 n=48 v=0
14112 On ch=3 n=48 v=64
14208 On ch=3 n=48 v=96
14208 Off ch=3 n=48 v=0
14592 On ch=3 n=48 v=127
14676 Off ch=3 n=48 v=0
14880 On ch=3 n=48 v=64
14880 Off ch=3 n=48 v=0
14976 Off ch=3 n=48 v=0
14976 On ch=3 n=48 v=96
15360 On ch=3 n=48 v=127
15444 Off ch=3 n=48 v=0
15648 Off ch=3 n=48 v=0
15648 On ch=3 n=48 v=64
15744 Off ch=3 n=48 v=0
15744 On ch=3 n=48 v=96
16128 On ch=3 n=48 v=127
16212 Off ch=3 n=48 v=0
16416 On ch=3 n=48 v=64
16416 Off ch=3 n=48 v=0
16512 Off ch=3 n=48 v=0
16512 On ch=3 n=48 v=96
16896 On ch=3 n=48 v=127
16980 Off ch=3 n=48 v=0
17184 On ch=3 n=48 v=64
17184 Off ch=3 n=48 v=0
17280 Off ch=3 n=48 v=0
17280 On ch=3 n=48 v=96
17748 Off ch=3 n=48 v=0
17748 Meta TrkEnd
TrkEnd
MTrk
0 Meta TrkName "03: biab_trance_hat_1"
0 Meta InstrName "03: biab_trance_hat_1"
1248 On ch=4 n=48 v=64
1272 On ch=4 n=48 v=127
1272 Off ch=4 n=48 v=0
1320 Off ch=4 n=48 v=0
2016 On ch=4 n=48 v=64
2040 Off ch=4 n=48 v=0
2040 On ch=4 n=48 v=127
2088 Off ch=4 n=48 v=0
2784 On ch=4 n=48 v=64
2808 Off ch=4 n=48 v=0
2808 On ch=4 n=48 v=127
2856 Off ch=4 n=48 v=0
3528 On ch=4 n=48 v=127
3540 Off ch=4 n=48 v=0
3540 On ch=4 n=48 v=127
3552 On ch=4 n=48 v=64
3552 Off ch=4 n=48 v=0
3576 On ch=4 n=48 v=127
3576 Off ch=4 n=48 v=0
3624 Off ch=4 n=48 v=0
4320 On ch=4 n=48 v=64
4344 On ch=4 n=48 v=127
4344 Off ch=4 n=48 v=0
4392 Off ch=4 n=48 v=0
5088 On ch=4 n=48 v=64
5112 On ch=4 n=48 v=127
5112 Off ch=4 n=48 v=0
5160 Off ch=4 n=48 v=0
5856 On ch=4 n=48 v=64
5880 Off ch=4 n=48 v=0
5880 On ch=4 n=48 v=127
5928 Off ch=4 n=48 v=0
5928 Meta TrkEnd
TrkEnd
MTrk
0 Meta TrkName "04: biab_trance_hat_8"
0 Meta InstrName "04: biab_trance_hat_8"
1320 On ch=5 n=48 v=127
1620 Off ch=5 n=48 v=0
2088 On ch=5 n=48 v=127
2388 Off ch=5 n=48 v=0
2856 On ch=5 n=48 v=127
3156 Off ch=5 n=48 v=0
3624 On ch=5 n=48 v=127
3924 Off ch=5 n=48 v=0
4392 On ch=5 n=48 v=127
4692 Off ch=5 n=48 v=0
5160 On ch=5 n=48 v=127
5460 Off ch=5 n=48 v=0
5928 On ch=5 n=48 v=127
6228 Off ch=5 n=48 v=0
6228 Meta TrkEnd
TrkEnd
MTrk
0 Meta TrkName "05: VST: Micromoon (FilterPlay)"
0 Meta InstrName "05: VST: Micromoon (FilterPlay)"
0 On ch=6 n=47 v=74
288 Off ch=6 n=47 v=0
288 On ch=6 n=50 v=90
480 On ch=6 n=54 v=73
480 Off ch=6 n=50 v=0
576 Off ch=6 n=54 v=0
576 On ch=6 n=47 v=65
852 Off ch=6 n=47 v=0
1536 On ch=6 n=47 v=96
1620 Off ch=6 n=47 v=0
1632 On ch=6 n=50 v=114
2004 Off ch=6 n=50 v=0
2016 On ch=6 n=55 v=86
2112 On ch=6 n=47 v=100
2112 Off ch=6 n=55 v=0
2388 Off ch=6 n=47 v=0
3072 On ch=6 n=47 v=96
3156 Off ch=6 n=47 v=0
3168 On ch=6 n=50 v=114
3540 Off ch=6 n=50 v=0
3552 On ch=6 n=55 v=86
3648 On ch=6 n=47 v=100
3648 Off ch=6 n=55 v=0
3924 Off ch=6 n=47 v=0
4608 On ch=6 n=47 v=96
4692 Off ch=6 n=47 v=0
4704 On ch=6 n=50 v=114
5076 Off ch=6 n=50 v=0
5088 On ch=6 n=55 v=86
5184 Off ch=6 n=55 v=0
5184 On ch=6 n=47 v=100
5460 Off ch=6 n=47 v=0
6144 On ch=6 n=47 v=96
6228 Off ch=6 n=47 v=0
6240 On ch=6 n=50 v=114
6612 Off ch=6 n=50 v=0
6624 On ch=6 n=55 v=86
6720 Off ch=6 n=55 v=0
6720 On ch=6 n=47 v=100
6996 Off ch=6 n=47 v=0
7680 On ch=6 n=47 v=96
7764 Off ch=6 n=47 v=0
7776 On ch=6 n=50 v=114
8148 Off ch=6 n=50 v=0
8160 On ch=6 n=55 v=86
8256 Off ch=6 n=55 v=0
8256 On ch=6 n=47 v=100
8532 Off ch=6 n=47 v=0
11520 On ch=6 n=47 v=96
11604 Off ch=6 n=47 v=0
11616 On ch=6 n=50 v=114
11988 Off ch=6 n=50 v=0
12000 On ch=6 n=55 v=86
12096 On ch=6 n=47 v=100
12096 Off ch=6 n=55 v=0
12372 Off ch=6 n=47 v=0
13056 On ch=6 n=47 v=96
13140 Off ch=6 n=47 v=0
13152 On ch=6 n=50 v=114
13524 Off ch=6 n=50 v=0
13536 On ch=6 n=55 v=86
13632 On ch=6 n=47 v=100
13632 Off ch=6 n=55 v=0
13908 Off ch=6 n=47 v=0
14592 On ch=6 n=52 v=96
14676 Off ch=6 n=52 v=0
14688 On ch=6 n=55 v=114
15060 Off ch=6 n=55 v=0
15072 On ch=6 n=60 v=86
15168 On ch=6 n=52 v=100
15168 Off ch=6 n=60 v=0
15444 Off ch=6 n=52 v=0
16128 On ch=6 n=47 v=96
16212 Off ch=6 n=47 v=0
16224 On ch=6 n=50 v=114
16596 Off ch=6 n=50 v=0
16608 On ch=6 n=55 v=86
16704 Off ch=6 n=55 v=0
16704 On ch=6 n=47 v=100
16980 Off ch=6 n=47 v=0
16980 Meta TrkEnd
TrkEnd
MTrk
0 Meta TrkName "06: VST: Zebralette(x64) (HS Bold As Brass a)"
0 Meta InstrName "06: VST: Zebralette(x64) (HS Bold As Brass a)"
1536 On ch=7 n=30 v=112
1536 On ch=7 n=23 v=79
2388 Off ch=7 n=30 v=0
2388 Off ch=7 n=23 v=0
3072 On ch=7 n=23 v=79
3072 On ch=7 n=30 v=112
3840 On ch=7 n=30 v=112
3840 On ch=7 n=23 v=79
3924 Off ch=7 n=30 v=0
3924 Off ch=7 n=23 v=0
4608 On ch=7 n=23 v=79
4608 On ch=7 n=30 v=112
4692 Off ch=7 n=23 v=0
4692 Off ch=7 n=30 v=0
5376 On ch=7 n=30 v=112
5376 On ch=7 n=23 v=79
5460 Off ch=7 n=23 v=0
5460 Off ch=7 n=30 v=0
6228 Off ch=7 n=23 v=0
6228 Off ch=7 n=30 v=0
6346 On ch=7 n=23 v=102
6348 On ch=7 n=30 v=118
6816 On ch=7 n=23 v=70
6816 Off ch=7 n=30 v=0
6816 On ch=7 n=35 v=66
6816 Off ch=7 n=23 v=0
6996 Off ch=7 n=23 v=0
6996 Off ch=7 n=35 v=0
7114 On ch=7 n=23 v=102
7116 On ch=7 n=30 v=118
7584 Off ch=7 n=23 v=0
7584 On ch=7 n=23 v=70
7584 On ch=7 n=35 v=66
7584 Off ch=7 n=30 v=0
7764 Off ch=7 n=23 v=0
7764 Off ch=7 n=35 v=0
7882 On ch=7 n=23 v=102
7884 On ch=7 n=30 v=118
8352 On ch=7 n=35 v=66
8352 Off ch=7 n=30 v=0
8352 On ch=7 n=23 v=70
8352 Off ch=7 n=23 v=0
8532 Off ch=7 n=35 v=0
8532 Off ch=7 n=23 v=0
8650 On ch=7 n=23 v=102
8652 On ch=7 n=30 v=118
9120 Off ch=7 n=23 v=0
9120 On ch=7 n=23 v=70
9120 Off ch=7 n=30 v=0
9120 On ch=7 n=35 v=66
9300 Off ch=7 n=35 v=0
9300 Off ch=7 n=23 v=0
9888 On ch=7 n=23 v=70
9888 On ch=7 n=35 v=66
10068 Off ch=7 n=23 v=0
10068 Off ch=7 n=35 v=0
10656 On ch=7 n=35 v=66
10656 On ch=7 n=23 v=70
10836 Off ch=7 n=35 v=0
10836 Off ch=7 n=23 v=0
11722 On ch=7 n=23 v=102
11724 On ch=7 n=30 v=118
12192 On ch=7 n=23 v=70
12192 Off ch=7 n=23 v=0
12192 On ch=7 n=35 v=66
12192 Off ch=7 n=30 v=0
12372 Off ch=7 n=23 v=0
12372 Off ch=7 n=35 v=0
12490 On ch=7 n=23 v=102
12492 On ch=7 n=30 v=118
12960 On ch=7 n=23 v=70
12960 Off ch=7 n=30 v=0
12960 On ch=7 n=35 v=66
12960 Off ch=7 n=23 v=0
13140 Off ch=7 n=23 v=0
13140 Off ch=7 n=35 v=0
13258 On ch=7 n=23 v=102
13260 On ch=7 n=30 v=118
13728 Off ch=7 n=30 v=0
13728 Off ch=7 n=23 v=0
13728 On ch=7 n=35 v=66
13728 On ch=7 n=23 v=70
13908 Off ch=7 n=23 v=0
13908 Off ch=7 n=35 v=0
14026 On ch=7 n=23 v=102
14028 On ch=7 n=30 v=118
14496 Off ch=7 n=30 v=0
14496 On ch=7 n=23 v=70
14496 On ch=7 n=35 v=66
14496 Off ch=7 n=23 v=0
14676 Off ch=7 n=35 v=0
14676 Off ch=7 n=23 v=0
14794 On ch=7 n=28 v=102
14796 On ch=7 n=35 v=118
15264 On ch=7 n=40 v=66
15264 On ch=7 n=28 v=70
15264 Off ch=7 n=28 v=0
15264 Off ch=7 n=35 v=0
15444 Off ch=7 n=28 v=0
15444 Off ch=7 n=40 v=0
15562 On ch=7 n=23 v=102
15564 On ch=7 n=30 v=118
16032 Off ch=7 n=30 v=0
16032 On ch=7 n=23 v=70
16032 Off ch=7 n=23 v=0
16032 On ch=7 n=35 v=66
16212 Off ch=7 n=35 v=0
16212 Off ch=7 n=23 v=0
16330 On ch=7 n=23 v=102
16332 On ch=7 n=30 v=118
16800 On ch=7 n=35 v=66
16800 On ch=7 n=23 v=70
16800 Off ch=7 n=23 v=0
16800 Off ch=7 n=30 v=0
16980 Off ch=7 n=23 v=0
16980 Off ch=7 n=35 v=0
17098 On ch=7 n=23 v=102
17100 On ch=7 n=30 v=118
17568 Off ch=7 n=30 v=0
17568 On ch=7 n=35 v=66
17568 On ch=7 n=23 v=70
17568 Off ch=7 n=23 v=0
17748 Off ch=7 n=23 v=0
17748 Off ch=7 n=35 v=0
17748 Meta TrkEnd
TrkEnd
MTrk
0 Meta TrkName "07: biab-crunk-kit_21"
0 Meta InstrName "07: biab-crunk-kit_21"
3072 On ch=8 n=48 v=127
3096 On ch=8 n=48 v=64
3096 Off ch=8 n=48 v=0
3120 On ch=8 n=48 v=127
3120 Off ch=8 n=48 v=0
3144 On ch=8 n=48 v=64
3144 Off ch=8 n=48 v=0
3168 Off ch=8 n=48 v=0
3168 On ch=8 n=48 v=127
3192 On ch=8 n=48 v=64
3192 Off ch=8 n=48 v=0
3216 On ch=8 n=48 v=127
3216 Off ch=8 n=48 v=0
3240 Off ch=8 n=48 v=0
3240 On ch=8 n=48 v=64
3264 Off ch=8 n=48 v=0
3264 On ch=8 n=48 v=127
3288 On ch=8 n=48 v=64
3288 Off ch=8 n=48 v=0
3312 Off ch=8 n=48 v=0
3312 On ch=8 n=48 v=127
3336 On ch=8 n=48 v=64
3336 Off ch=8 n=48 v=0
3360 Off ch=8 n=48 v=0
3360 On ch=8 n=48 v=127
3384 Off ch=8 n=48 v=0
3384 On ch=8 n=48 v=64
3408 Off ch=8 n=48 v=0
3408 On ch=8 n=48 v=127
3432 Off ch=8 n=48 v=0
3432 On ch=8 n=48 v=64
3456 Off ch=8 n=48 v=0
3456 On ch=8 n=48 v=127
3480 On ch=8 n=48 v=64
3480 Off ch=8 n=48 v=0
3504 Off ch=8 n=48 v=0
3504 On ch=8 n=48 v=127
3528 On ch=8 n=48 v=64
3528 Off ch=8 n=48 v=0
3552 Off ch=8 n=48 v=0
3552 On ch=8 n=48 v=127
3576 Off ch=8 n=48 v=0
3576 On ch=8 n=48 v=64
3600 Off ch=8 n=48 v=0
3600 On ch=8 n=48 v=127
3624 On ch=8 n=48 v=64
3624 Off ch=8 n=48 v=0
3648 Off ch=8 n=48 v=0
3648 On ch=8 n=48 v=127
3672 On ch=8 n=48 v=64
3672 Off ch=8 n=48 v=0
3696 Off ch=8 n=48 v=0
3696 On ch=8 n=48 v=127
3720 On ch=8 n=48 v=64
3720 Off ch=8 n=48 v=0
3744 Off ch=8 n=48 v=0
3744 On ch=8 n=48 v=127
3768 On ch=8 n=48 v=64
3768 Off ch=8 n=48 v=0
3792 On ch=8 n=48 v=127
3792 Off ch=8 n=48 v=0
3816 Off ch=8 n=48 v=0
3816 On ch=8 n=48 v=64
3840 On ch=8 n=48 v=127
3864 Off ch=8 n=48 v=0
3864 On ch=8 n=48 v=64
3888 Off ch=8 n=48 v=0
3888 On ch=8 n=48 v=127
3912 On ch=8 n=48 v=64
3912 Off ch=8 n=48 v=0
3924 Off ch=8 n=48 v=0
3936 Off ch=8 n=48 v=0
3936 On ch=8 n=48 v=127
3960 Off ch=8 n=48 v=0
3960 On ch=8 n=48 v=64
3984 On ch=8 n=48 v=127
3984 Off ch=8 n=48 v=0
4008 Off ch=8 n=48 v=0
4008 On ch=8 n=48 v=64
4032 Off ch=8 n=48 v=0
4032 On ch=8 n=48 v=127
4056 Off ch=8 n=48 v=0
4056 On ch=8 n=48 v=64
4080 On ch=8 n=48 v=127
4080 Off ch=8 n=48 v=0
4104 Off ch=8 n=48 v=0
4104 On ch=8 n=48 v=64
4128 On ch=8 n=48 v=127
4128 Off ch=8 n=48 v=0
4152 Off ch=8 n=48 v=0
4152 On ch=8 n=48 v=64
4176 On ch=8 n=48 v=127
4176 Off ch=8 n=48 v=0
4200 On ch=8 n=48 v=64
4200 Off ch=8 n=48 v=0
4224 Off ch=8 n=48 v=0
4224 On ch=8 n=48 v=127
4248 Off ch=8 n=48 v=0
4248 On ch=8 n=48 v=64
4272 On ch=8 n=48 v=127
4272 Off ch=8 n=48 v=0
4296 Off ch=8 n=48 v=0
4296 On ch=8 n=48 v=64
4320 Off ch=8 n=48 v=0
4320 On ch=8 n=48 v=127
4344 On ch=8 n=48 v=64
4344 Off ch=8 n=48 v=0
4368 On ch=8 n=48 v=127
4368 Off ch=8 n=48 v=0
4392 Off ch=8 n=48 v=0
4392 On ch=8 n=48 v=64
4416 Off ch=8 n=48 v=0
4416 On ch=8 n=48 v=127
4440 Off ch=8 n=48 v=0
4440 On ch=8 n=48 v=64
4464 Off ch=8 n=48 v=0
4464 On ch=8 n=48 v=127
4488 On ch=8 n=48 v=64
4488 Off ch=8 n=48 v=0
4512 On ch=8 n=48 v=127
4512 Off ch=8 n=48 v=0
4536 Off ch=8 n=48 v=0
4536 On ch=8 n=48 v=64
4560 Off ch=8 n=48 v=0
4560 On ch=8 n=48 v=127
4584 On ch=8 n=48 v=64
4584 Off ch=8 n=48 v=0
4608 On ch=8 n=48 v=127
4632 On ch=8 n=48 v=64
4632 Off ch=8 n=48 v=0
4656 Off ch=8 n=48 v=0
4656 On ch=8 n=48 v=127
4680 Off ch=8 n=48 v=0
4680 On ch=8 n=48 v=64
4692 Off ch=8 n=48 v=0
4704 On ch=8 n=48 v=127
4704 Off ch=8 n=48 v=0
4728 On ch=8 n=48 v=64
4728 Off ch=8 n=48 v=0
4752 On ch=8 n=48 v=127
4752 Off ch=8 n=48 v=0
4776 Off ch=8 n=48 v=0
4776 On ch=8 n=48 v=64
4800 Off ch=8 n=48 v=0
4800 On ch=8 n=48 v=127
4824 On ch=8 n=48 v=64
4824 Off ch=8 n=48 v=0
4848 On ch=8 n=48 v=127
4848 Off ch=8 n=48 v=0
4872 Off ch=8 n=48 v=0
4872 On ch=8 n=48 v=64
4896 On ch=8 n=48 v=127
4896 Off ch=8 n=48 v=0
4920 On ch=8 n=48 v=64
4920 Off ch=8 n=48 v=0
4944 Off ch=8 n=48 v=0
4944 On ch=8 n=48 v=127
4968 Off ch=8 n=48 v=0
4968 On ch=8 n=48 v=64
4992 Off ch=8 n=48 v=0
4992 On ch=8 n=48 v=127
5016 On ch=8 n=48 v=64
5016 Off ch=8 n=48 v=0
5040 Off ch=8 n=48 v=0
5040 On ch=8 n=48 v=127
5064 Off ch=8 n=48 v=0
5064 On ch=8 n=48 v=64
5088 On ch=8 n=48 v=127
5088 Off ch=8 n=48 v=0
5112 Off ch=8 n=48 v=0
5112 On ch=8 n=48 v=64
5136 On ch=8 n=48 v=127
5136 Off ch=8 n=48 v=0
5160 Off ch=8 n=48 v=0
5160 On ch=8 n=48 v=64
5184 Off ch=8 n=48 v=0
5184 On ch=8 n=48 v=127
5208 Off ch=8 n=48 v=0
5208 On ch=8 n=48 v=64
5232 On ch=8 n=48 v=127
5232 Off ch=8 n=48 v=0
5256 On ch=8 n=48 v=64
5256 Off ch=8 n=48 v=0
5280 On ch=8 n=48 v=127
5280 Off ch=8 n=48 v=0
5304 On ch=8 n=48 v=64
5304 Off ch=8 n=48 v=0
5328 Off ch=8 n=48 v=0
5328 On ch=8 n=48 v=127
5352 Off ch=8 n=48 v=0
5352 On ch=8 n=48 v=64
5376 On ch=8 n=48 v=127
5400 On ch=8 n=48 v=64
5400 Off ch=8 n=48 v=0
5424 On ch=8 n=48 v=127
5424 Off ch=8 n=48 v=0
5448 Off ch=8 n=48 v=0
5448 On ch=8 n=48 v=64
5460 Off ch=8 n=48 v=0
5472 Off ch=8 n=48 v=0
5472 On ch=8 n=48 v=127
5496 On ch=8 n=48 v=64
5496 Off ch=8 n=48 v=0
5520 On ch=8 n=48 v=127
5520 Off ch=8 n=48 v=0
5544 Off ch=8 n=48 v=0
5544 On ch=8 n=48 v=64
5568 On ch=8 n=48 v=127
5568 Off ch=8 n=48 v=0
5592 On ch=8 n=48 v=64
5592 Off ch=8 n=48 v=0
5616 Off ch=8 n=48 v=0
5616 On ch=8 n=48 v=127
5640 On ch=8 n=48 v=64
5640 Off ch=8 n=48 v=0
5664 Off ch=8 n=48 v=0
5664 On ch=8 n=48 v=127
5688 Off ch=8 n=48 v=0
5688 On ch=8 n=48 v=64
5712 On ch=8 n=48 v=127
5712 Off ch=8 n=48 v=0
5736 Off ch=8 n=48 v=0
5736 On ch=8 n=48 v=64
5760 Off ch=8 n=48 v=0
5760 On ch=8 n=48 v=127
5784 On ch=8 n=48 v=64
5784 Off ch=8 n=48 v=0
5808 Off ch=8 n=48 v=0
5808 On ch=8 n=48 v=127
5832 On ch=8 n=48 v=64
5832 Off ch=8 n=48 v=0
5856 Off ch=8 n=48 v=0
5856 On ch=8 n=48 v=127
5880 Off ch=8 n=48 v=0
5880 On ch=8 n=48 v=64
5904 On ch=8 n=48 v=127
5904 Off ch=8 n=48 v=0
5928 Off ch=8 n=48 v=0
5928 On ch=8 n=48 v=64
5952 On ch=8 n=48 v=127
5952 Off ch=8 n=48 v=0
5976 On ch=8 n=48 v=64
5976 Off ch=8 n=48 v=0
6000 On ch=8 n=48 v=127
6000 Off ch=8 n=48 v=0
6024 On ch=8 n=48 v=64
6024 Off ch=8 n=48 v=0
6048 Off ch=8 n=48 v=0
6048 On ch=8 n=48 v=127
6072 Off ch=8 n=48 v=0
6072 On ch=8 n=48 v=64
6096 On ch=8 n=48 v=127
6096 Off ch=8 n=48 v=0
6120 Off ch=8 n=48 v=0
6120 On ch=8 n=48 v=64
6228 Off ch=8 n=48 v=0
9216 On ch=8 n=48 v=127
9240 On ch=8 n=48 v=64
9240 Off ch=8 n=48 v=0
9264 On ch=8 n=48 v=127
9264 Off ch=8 n=48 v=0
9288 Off ch=8 n=48 v=0
9288 On ch=8 n=48 v=64
9312 Off ch=8 n=48 v=0
9312 On ch=8 n=48 v=127
9336 On ch=8 n=48 v=64
9336 Off ch=8 n=48 v=0
9360 On ch=8 n=48 v=127
9360 Off ch=8 n=48 v=0
9384 Off ch=8 n=48 v=0
9384 On ch=8 n=48 v=64
9408 Off ch=8 n=48 v=0
9408 On ch=8 n=48 v=127
9432 On ch=8 n=48 v=64
9432 Off ch=8 n=48 v=0
9456 On ch=8 n=48 v=127
9456 Off ch=8 n=48 v=0
9480 Off ch=8 n=48 v=0
9480 On ch=8 n=48 v=64
9504 Off ch=8 n=48 v=0
9504 On ch=8 n=48 v=127
9528 On ch=8 n=48 v=64
9528 Off ch=8 n=48 v=0
9552 On ch=8 n=48 v=127
9552 Off ch=8 n=48 v=0
9576 On ch=8 n=48 v=64
9576 Off ch=8 n=48 v=0
9600 On ch=8 n=48 v=127
9600 Off ch=8 n=48 v=0
9624 Off ch=8 n=48 v=0
9624 On ch=8 n=48 v=64
9648 On ch=8 n=48 v=127
9648 Off ch=8 n=48 v=0
9672 On ch=8 n=48 v=64
9672 Off ch=8 n=48 v=0
9696 On ch=8 n=48 v=127
9696 Off ch=8 n=48 v=0
9720 On ch=8 n=48 v=64
9720 Off ch=8 n=48 v=0
9744 Off ch=8 n=48 v=0
9744 On ch=8 n=48 v=127
9768 On ch=8 n=48 v=64
9768 Off ch=8 n=48 v=0
9792 On ch=8 n=48 v=127
9792 Off ch=8 n=48 v=0
9816 On ch=8 n=48 v=64
9816 Off ch=8 n=48 v=0
9840 On ch=8 n=48 v=127
9840 Off ch=8 n=48 v=0
9864 On ch=8 n=48 v=64
9864 Off ch=8 n=48 v=0
9888 Off ch=8 n=48 v=0
9888 On ch=8 n=48 v=127
9912 Off ch=8 n=48 v=0
9912 On ch=8 n=48 v=64
9936 On ch=8 n=48 v=127
9936 Off ch=8 n=48 v=0
9960 On ch=8 n=48 v=64
9960 Off ch=8 n=48 v=0
9984 On ch=8 n=48 v=127
10008 On ch=8 n=48 v=64
10008 Off ch=8 n=48 v=0
10032 On ch=8 n=48 v=127
10032 Off ch=8 n=48 v=0
10056 Off ch=8 n=48 v=0
10056 On ch=8 n=48 v=64
10068 Off ch=8 n=48 v=0
10080 On ch=8 n=48 v=127
10080 Off ch=8 n=48 v=0
10104 On ch=8 n=48 v=64
10104 Off ch=8 n=48 v=0
10128 Off ch=8 n=48 v=0
10128 On ch=8 n=48 v=127
10152 Off ch=8 n=48 v=0
10152 On ch=8 n=48 v=64
10176 Off ch=8 n=48 v=0
10176 On ch=8 n=48 v=127
10200 On ch=8 n=48 v=64
10200 Off ch=8 n=48 v=0
10224 On ch=8 n=48 v=127
10224 Off ch=8 n=48 v=0
10248 On ch=8 n=48 v=64
10248 Off ch=8 n=48 v=0
10272 On ch=8 n=48 v=127
10272 Off ch=8 n=48 v=0
10296 On ch=8 n=48 v=64
10296 Off ch=8 n=48 v=0
10320 Off ch=8 n=48 v=0
10320 On ch=8 n=48 v=127
10344 Off ch=8 n=48 v=0
10344 On ch=8 n=48 v=64
10368 On ch=8 n=48 v=127
10368 Off ch=8 n=48 v=0
10392 Off ch=8 n=48 v=0
10392 On ch=8 n=48 v=64
10416 On ch=8 n=48 v=127
10416 Off ch=8 n=48 v=0
10440 Off ch=8 n=48 v=0
10440 On ch=8 n=48 v=64
10464 Off ch=8 n=48 v=0
10464 On ch=8 n=48 v=127
10488 Off ch=8 n=48 v=0
10488 On ch=8 n=48 v=64
10512 Off ch=8 n=48 v=0
10512 On ch=8 n=48 v=127
10536 On ch=8 n=48 v=64
10536 Off ch=8 n=48 v=0
10560 On ch=8 n=48 v=127
10560 Off ch=8 n=48 v=0
10584 Off ch=8 n=48 v=0
10584 On ch=8 n=48 v=64
10608 On ch=8 n=48 v=127
10608 Off ch=8 n=48 v=0
10632 On ch=8 n=48 v=64
10632 Off ch=8 n=48 v=0
10656 Off ch=8 n=48 v=0
10656 On ch=8 n=48 v=127
10680 On ch=8 n=48 v=64
10680 Off ch=8 n=48 v=0
10704 Off ch=8 n=48 v=0
10704 On ch=8 n=48 v=127
10728 Off ch=8 n=48 v=0
10728 On ch=8 n=48 v=64
10836 Off ch=8 n=48 v=0
10836 Meta TrkEnd
TrkEnd
MTrk
0 Meta TrkName "08: funky_mule--rides"
0 Meta InstrName "08: funky_mule--rides"
6144 On ch=9 n=35 v=56
6912 On ch=9 n=35 v=56
6996 Off ch=9 n=35 v=0
7680 On ch=9 n=35 v=56
7764 Off ch=9 n=35 v=0
8448 On ch=9 n=35 v=56
8532 Off ch=9 n=35 v=0
9300 Off ch=9 n=35 v=0
9888 On ch=9 n=35 v=56
10068 Off ch=9 n=35 v=0
10656 On ch=9 n=35 v=56
10836 Off ch=9 n=35 v=0
11520 On ch=9 n=35 v=56
12288 On ch=9 n=35 v=56
12372 Off ch=9 n=35 v=0
13056 On ch=9 n=35 v=56
13140 Off ch=9 n=35 v=0
13824 On ch=9 n=35 v=56
13908 Off ch=9 n=35 v=0
14592 On ch=9 n=40 v=56
14676 Off ch=9 n=35 v=0
15360 On ch=9 n=40 v=56
15444 Off ch=9 n=40 v=0
16128 On ch=9 n=35 v=56
16212 Off ch=9 n=40 v=0
16896 On ch=9 n=35 v=56
16980 Off ch=9 n=35 v=0
17748 Off ch=9 n=35 v=0
17748 Meta TrkEnd
TrkEnd
MTrk
0 Meta TrkName "09: biab-dave-rev-5"
0 Meta InstrName "09: biab-dave-rev-5"
288 On ch=10 n=24 v=127
852 Off ch=10 n=24 v=0
852 Meta TrkEnd
TrkEnd
MTrk
0 Meta TrkName "10: biab_electro_clap_5"
0 Meta InstrName "10: biab_electro_clap_5"
6144 On ch=11 n=36 v=127
6996 Off ch=11 n=36 v=0
7680 On ch=11 n=43 v=127
8532 Off ch=11 n=43 v=0
11520 On ch=11 n=36 v=127
12372 Off ch=11 n=36 v=0
13056 On ch=11 n=36 v=127
13908 Off ch=11 n=36 v=0
14592 On ch=11 n=36 v=127
15444 Off ch=11 n=36 v=0
16128 On ch=11 n=36 v=127
16980 Off ch=11 n=36 v=0
16980 Meta TrkEnd
TrkEnd
MTrk
0 Meta TrkName "12: samoShort"
0 Meta InstrName "12: samoShort"
9216 On ch=12 n=48 v=127
10068 Off ch=12 n=48 v=0
10752 On ch=12 n=48 v=127
11604 Off ch=12 n=48 v=0
11604 Meta TrkEnd
TrkEnd
MTrk
0 Meta TrkName "13: VST: Micromoon (Mod synth)"
0 Meta InstrName "13: VST: Micromoon (Mod synth)"
11520 On ch=13 n=71 v=96
11604 Off ch=13 n=71 v=0
11616 On ch=13 n=74 v=114
11988 Off ch=13 n=74 v=0
12000 On ch=13 n=79 v=86
12096 On ch=13 n=71 v=100
12096 Off ch=13 n=79 v=0
12372 Off ch=13 n=71 v=0
13056 On ch=13 n=71 v=96
13140 Off ch=13 n=71 v=0
13152 On ch=13 n=74 v=114
13524 Off ch=13 n=74 v=0
13536 On ch=13 n=79 v=86
13632 Off ch=13 n=79 v=0
13632 On ch=13 n=71 v=100
13908 Off ch=13 n=71 v=0
14592 On ch=13 n=71 v=96
14676 Off ch=13 n=71 v=0
14688 On ch=13 n=74 v=114
15060 Off ch=13 n=74 v=0
15072 On ch=13 n=79 v=86
15168 Off ch=13 n=79 v=0
15168 On ch=13 n=71 v=100
15444 Off ch=13 n=71 v=0
16128 On ch=13 n=71 v=96
16212 Off ch=13 n=71 v=0
16224 On ch=13 n=74 v=114
16596 Off ch=13 n=74 v=0
16608 On ch=13 n=79 v=86
16704 Off ch=13 n=79 v=0
16704 On ch=13 n=71 v=100
16980 Off ch=13 n=71 v=0
16980 Meta TrkEnd
TrkEnd
MTrk
0 Meta TrkName "14: Biab_HS_Kick_7"
0 Meta InstrName "14: Biab_HS_Kick_7"
11520 On ch=14 n=48 v=127
12288 On ch=14 n=48 v=127
12372 Off ch=14 n=48 v=0
13056 On ch=14 n=48 v=127
13140 Off ch=14 n=48 v=0
13824 On ch=14 n=48 v=127
13908 Off ch=14 n=48 v=0
14592 On ch=14 n=48 v=127
14676 Off ch=14 n=48 v=0
15360 On ch=14 n=48 v=127
15444 Off ch=14 n=48 v=0
16128 On ch=14 n=48 v=127
16212 Off ch=14 n=48 v=0
16896 On ch=14 n=48 v=127
16980 Off ch=14 n=48 v=0
17748 Off ch=14 n=48 v=0
17748 Meta TrkEnd
TrkEnd
MTrk
0 Meta TrkName "15: VST: Tapeotronic (Chorale)"
0 Meta InstrName "15: VST: Tapeotronic (Chorale)"
11520 On ch=15 n=71 v=53
11520 On ch=15 n=74 v=57
11520 On ch=15 n=59 v=69
11520 On ch=15 n=78 v=54
11520 On ch=15 n=66 v=60
11520 On ch=15 n=47 v=74
11604 Off ch=15 n=71 v=0
11604 Off ch=15 n=47 v=0
11604 Off ch=15 n=66 v=0
11604 Off ch=15 n=59 v=0
11604 Off ch=15 n=78 v=0
11604 Off ch=15 n=74 v=0
11616 On ch=15 n=71 v=53
11616 On ch=15 n=59 v=69
11616 On ch=15 n=74 v=57
11616 On ch=15 n=78 v=54
11616 On ch=15 n=66 v=60
11616 On ch=15 n=47 v=74
11712 Off ch=15 n=59 v=0
11712 Off ch=15 n=47 v=0
11712 Off ch=15 n=74 v=0
11712 Off ch=15 n=78 v=0
11712 Off ch=15 n=71 v=0
11712 Off ch=15 n=66 v=0
11856 On ch=15 n=59 v=69
11856 On ch=15 n=71 v=53
11856 On ch=15 n=78 v=54
11856 On ch=15 n=66 v=60
11856 On ch=15 n=74 v=57
11856 On ch=15 n=47 v=74
11904 Off ch=15 n=71 v=0
11904 Off ch=15 n=47 v=0
11904 Off ch=15 n=74 v=0
11904 Off ch=15 n=66 v=0
11904 On ch=15 n=71 v=53
11904 On ch=15 n=74 v=57
11904 Off ch=15 n=78 v=0
11904 On ch=15 n=78 v=54
11904 On ch=15 n=66 v=60
11904 On ch=15 n=47 v=74
11904 Off ch=15 n=59 v=0
11904 On ch=15 n=59 v=69
12000 On ch=15 n=55 v=63
12000 On ch=15 n=74 v=47
12000 On ch=15 n=70 v=48
12000 Off ch=15 n=47 v=0
12000 Off ch=15 n=74 v=0
12000 On ch=15 n=78 v=49
12000 Off ch=15 n=78 v=0
12000 Off ch=15 n=66 v=0
12000 On ch=15 n=67 v=50
12000 Off ch=15 n=71 v=0
12000 On ch=15 n=43 v=62
12000 Off ch=15 n=59 v=0
12096 On ch=15 n=47 v=48
12096 Off ch=15 n=43 v=0
12096 On ch=15 n=74 v=54
12096 On ch=15 n=78 v=52
12096 Off ch=15 n=70 v=0
12096 Off ch=15 n=78 v=0
12096 Off ch=15 n=55 v=0
12096 On ch=15 n=59 v=48
12096 Off ch=15 n=67 v=0
12096 On ch=15 n=71 v=75
12096 On ch=15 n=66 v=57
12096 Off ch=15 n=74 v=0
12288 On ch=15 n=47 v=52
12312 On ch=15 n=50 v=92
12312 Off ch=15 n=47 v=0
12336 On ch=15 n=54 v=109
12336 Off ch=15 n=50 v=0
12360 Off ch=15 n=54 v=0
12360 On ch=15 n=50 v=65
12372 Off ch=15 n=66 v=0
12372 Off ch=15 n=78 v=0
12372 Off ch=15 n=74 v=0
12372 Off ch=15 n=59 v=0
12372 Off ch=15 n=71 v=0
12372 Off ch=15 n=47 v=0
12384 Off ch=15 n=50 v=0
12384 On ch=15 n=47 v=60
12408 Off ch=15 n=47 v=0
12408 On ch=15 n=50 v=72
12432 On ch=15 n=54 v=98
12432 Off ch=15 n=50 v=0
12456 Off ch=15 n=54 v=0
12456 On ch=15 n=50 v=81
12480 Off ch=15 n=50 v=0
12480 On ch=15 n=47 v=65
12504 Off ch=15 n=47 v=0
12504 On ch=15 n=50 v=69
12528 On ch=15 n=54 v=92
12528 Off ch=15 n=50 v=0
12552 Off ch=15 n=54 v=0
12552 On ch=15 n=50 v=70
12576 Off ch=15 n=50 v=0
12576 On ch=15 n=47 v=78
12600 Off ch=15 n=47 v=0
12600 On ch=15 n=50 v=61
12624 Off ch=15 n=50 v=0
12624 On ch=15 n=54 v=75
12648 Off ch=15 n=54 v=0
12648 On ch=15 n=50 v=69
12672 Off ch=15 n=50 v=0
12672 On ch=15 n=47 v=40
12696 On ch=15 n=50 v=59
12696 Off ch=15 n=47 v=0
12720 Off ch=15 n=50 v=0
12720 On ch=15 n=54 v=92
12744 Off ch=15 n=54 v=0
12744 On ch=15 n=50 v=75
12768 On ch=15 n=47 v=72
12768 Off ch=15 n=50 v=0
12792 Off ch=15 n=47 v=0
12792 On ch=15 n=50 v=65
12816 Off ch=15 n=50 v=0
12816 On ch=15 n=54 v=88
12840 On ch=15 n=50 v=64
12840 Off ch=15 n=54 v=0
12864 Off ch=15 n=50 v=0
12864 On ch=15 n=47 v=48
12888 On ch=15 n=50 v=57
12888 Off ch=15 n=47 v=0
12912 On ch=15 n=54 v=84
12912 Off ch=15 n=50 v=0
12936 On ch=15 n=50 v=69
12936 Off ch=15 n=54 v=0
12960 On ch=15 n=54 v=70
12960 Off ch=15 n=50 v=0
12960 On ch=15 n=50 v=77
12960 On ch=15 n=47 v=76
12984 Off ch=15 n=54 v=0
12984 On ch=15 n=50 v=56
13008 Off ch=15 n=50 v=0
13008 On ch=15 n=54 v=75
13032 Off ch=15 n=54 v=0
13032 On ch=15 n=50 v=69
13056 On ch=15 n=59 v=69
13056 On ch=15 n=47 v=74
13056 On ch=15 n=74 v=57
13056 On ch=15 n=78 v=54
13056 On ch=15 n=66 v=60
13056 On ch=15 n=71 v=53
13140 Off ch=15 n=50 v=0
13140 Off ch=15 n=50 v=0
13140 Off ch=15 n=47 v=0
13140 Off ch=15 n=59 v=0
13140 Off ch=15 n=47 v=0
13140 Off ch=15 n=74 v=0
13140 Off ch=15 n=66 v=0
13140 Off ch=15 n=78 v=0
13140 Off ch=15 n=71 v=0
13152 On ch=15 n=71 v=53
13152 On ch=15 n=74 v=57
13152 On ch=15 n=47 v=74
13152 On ch=15 n=66 v=60
13152 On ch=15 n=59 v=69
13152 On ch=15 n=78 v=54
13248 Off ch=15 n=71 v=0
13248 Off ch=15 n=59 v=0
13248 Off ch=15 n=74 v=0
13248 Off ch=15 n=78 v=0
13248 Off ch=15 n=47 v=0
13248 Off ch=15 n=66 v=0
13392 On ch=15 n=59 v=69
13392 On ch=15 n=66 v=60
13392 On ch=15 n=71 v=53
13392 On ch=15 n=47 v=74
13392 On ch=15 n=74 v=57
13392 On ch=15 n=78 v=54
13440 On ch=15 n=71 v=53
13440 Off ch=15 n=71 v=0
13440 Off ch=15 n=78 v=0
13440 On ch=15 n=47 v=74
13440 On ch=15 n=78 v=54
13440 Off ch=15 n=59 v=0
13440 On ch=15 n=59 v=69
13440 On ch=15 n=74 v=57
13440 Off ch=15 n=47 v=0
13440 Off ch=15 n=74 v=0
13440 Off ch=15 n=66 v=0
13440 On ch=15 n=66 v=60
13536 On ch=15 n=43 v=62
13536 On ch=15 n=55 v=63
13536 Off ch=15 n=78 v=0
13536 Off ch=15 n=71 v=0
13536 On ch=15 n=78 v=49
13536 Off ch=15 n=66 v=0
13536 Off ch=15 n=74 v=0
13536 On ch=15 n=74 v=47
13536 Off ch=15 n=59 v=0
13536 On ch=15 n=67 v=50
13536 On ch=15 n=70 v=48
13536 Off ch=15 n=47 v=0
13632 Off ch=15 n=74 v=0
13632 On ch=15 n=47 v=48
13632 Off ch=15 n=43 v=0
13632 On ch=15 n=78 v=52
13632 Off ch=15 n=78 v=0
13632 Off ch=15 n=55 v=0
13632 On ch=15 n=74 v=54
13632 Off ch=15 n=67 v=0
13632 On ch=15 n=59 v=48
13632 On ch=15 n=71 v=75
13632 Off ch=15 n=70 v=0
13632 On ch=15 n=66 v=57
13824 On ch=15 n=47 v=52
13848 On ch=15 n=50 v=92
13848 Off ch=15 n=47 v=0
13872 Off ch=15 n=50 v=0
13872 On ch=15 n=54 v=109
13896 Off ch=15 n=54 v=0
13896 On ch=15 n=50 v=65
13908 Off ch=15 n=71 v=0
13908 Off ch=15 n=59 v=0
13908 Off ch=15 n=66 v=0
13908 Off ch=15 n=47 v=0
13908 Off ch=15 n=74 v=0
13908 Off ch=15 n=78 v=0
13920 Off ch=15 n=50 v=0
13920 On ch=15 n=47 v=60
13944 Off ch=15 n=47 v=0
13944 On ch=15 n=50 v=72
13968 Off ch=15 n=50 v=0
13968 On ch=15 n=54 v=98
13992 Off ch=15 n=54 v=0
13992 On ch=15 n=50 v=81
14016 On ch=15 n=47 v=65
14016 Off ch=15 n=50 v=0
14040 Off ch=15 n=47 v=0
14040 On ch=15 n=50 v=69
14064 Off ch=15 n=50 v=0
14064 On ch=15 n=54 v=92
14088 On ch=15 n=50 v=70
14088 Off ch=15 n=54 v=0
14112 Off ch=15 n=50 v=0
14112 On ch=15 n=47 v=78
14136 Off ch=15 n=47 v=0
14136 On ch=15 n=50 v=61
14160 On ch=15 n=54 v=75
14160 Off ch=15 n=50 v=0
14184 Off ch=15 n=54 v=0
14184 On ch=15 n=50 v=69
14208 On ch=15 n=47 v=40
14208 Off ch=15 n=50 v=0
14232 Off ch=15 n=47 v=0
14232 On ch=15 n=50 v=59
14256 On ch=15 n=54 v=92
14256 Off ch=15 n=50 v=0
14280 Off ch=15 n=54 v=0
14280 On ch=15 n=50 v=75
14304 Off ch=15 n=50 v=0
14304 On ch=15 n=47 v=72
14328 Off ch=15 n=47 v=0
14328 On ch=15 n=50 v=65
14352 On ch=15 n=54 v=88
14352 Off ch=15 n=50 v=0
14376 Off ch=15 n=54 v=0
14376 On ch=15 n=50 v=64
14400 Off ch=15 n=50 v=0
14400 On ch=15 n=47 v=48
14424 On ch=15 n=50 v=57
14424 Off ch=15 n=47 v=0
14448 Off ch=15 n=50 v=0
14448 On ch=15 n=54 v=84
14472 On ch=15 n=50 v=69
14472 Off ch=15 n=54 v=0
14496 On ch=15 n=54 v=70
14496 On ch=15 n=47 v=76
14496 Off ch=15 n=50 v=0
14496 On ch=15 n=50 v=77
14520 Off ch=15 n=54 v=0
14520 On ch=15 n=50 v=56
14544 On ch=15 n=54 v=75
14544 Off ch=15 n=50 v=0
14568 On ch=15 n=50 v=69
14568 Off ch=15 n=54 v=0
14592 On ch=15 n=64 v=69
14592 On ch=15 n=76 v=53
14592 On ch=15 n=71 v=60
14592 On ch=15 n=83 v=54
14592 On ch=15 n=79 v=57
14592 On ch=15 n=52 v=74
14676 Off ch=15 n=83 v=0
14676 Off ch=15 n=71 v=0
14676 Off ch=15 n=52 v=0
14676 Off ch=15 n=79 v=0
14676 Off ch=15 n=47 v=0
14676 Off ch=15 n=50 v=0
14676 Off ch=15 n=76 v=0
14676 Off ch=15 n=50 v=0
14676 Off ch=15 n=64 v=0
14688 On ch=15 n=71 v=60
14688 On ch=15 n=52 v=74
14688 On ch=15 n=76 v=53
14688 On ch=15 n=83 v=54
14688 On ch=15 n=79 v=57
14688 On ch=15 n=64 v=69
14784 Off ch=15 n=64 v=0
14784 Off ch=15 n=52 v=0
14784 Off ch=15 n=71 v=0
14784 Off ch=15 n=79 v=0
14784 Off ch=15 n=76 v=0
14784 Off ch=15 n=83 v=0
14928 On ch=15 n=79 v=57
14928 On ch=15 n=83 v=54
14928 On ch=15 n=52 v=74
14928 On ch=15 n=76 v=53
14928 On ch=15 n=64 v=69
14928 On ch=15 n=71 v=60
14976 On ch=15 n=79 v=57
14976 On ch=15 n=83 v=54
14976 Off ch=15 n=83 v=0
14976 Off ch=15 n=79 v=0
14976 On ch=15 n=64 v=69
14976 Off ch=15 n=64 v=0
14976 Off ch=15 n=71 v=0
14976 Off ch=15 n=76 v=0
14976 On ch=15 n=76 v=53
14976 On ch=15 n=71 v=60
14976 On ch=15 n=52 v=74
14976 Off ch=15 n=52 v=0
15072 Off ch=15 n=64 v=0
15072 Off ch=15 n=71 v=0
15072 On ch=15 n=48 v=62
15072 Off ch=15 n=83 v=0
15072 On ch=15 n=60 v=63
15072 On ch=15 n=83 v=49
15072 Off ch=15 n=79 v=0
15072 Off ch=15 n=76 v=0
15072 On ch=15 n=72 v=50
15072 On ch=15 n=75 v=48
15072 On ch=15 n=79 v=47
15072 Off ch=15 n=52 v=0
15168 On ch=15 n=79 v=54
15168 Off ch=15 n=48 v=0
15168 Off ch=15 n=72 v=0
15168 Off ch=15 n=60 v=0
15168 On ch=15 n=64 v=48
15168 Off ch=15 n=75 v=0
15168 On ch=15 n=71 v=57
15168 On ch=15 n=76 v=75
15168 On ch=15 n=83 v=52
15168 Off ch=15 n=83 v=0
15168 On ch=15 n=52 v=48
15168 Off ch=15 n=79 v=0
15360 On ch=15 n=52 v=52
15384 Off ch=15 n=52 v=0
15384 On ch=15 n=55 v=92
15408 Off ch=15 n=55 v=0
15408 On ch=15 n=59 v=109
15432 On ch=15 n=55 v=65
15432 Off ch=15 n=59 v=0
15444 Off ch=15 n=64 v=0
15444 Off ch=15 n=52 v=0
15444 Off ch=15 n=79 v=0
15444 Off ch=15 n=71 v=0
15444 Off ch=15 n=83 v=0
15444 Off ch=15 n=76 v=0
15456 Off ch=15 n=55 v=0
15456 On ch=15 n=52 v=60
15480 On ch=15 n=55 v=72
15480 Off ch=15 n=52 v=0
15504 On ch=15 n=59 v=98
15504 Off ch=15 n=55 v=0
15528 Off ch=15 n=59 v=0
15528 On ch=15 n=55 v=81
15552 On ch=15 n=52 v=65
15552 Off ch=15 n=55 v=0
15576 Off ch=15 n=52 v=0
15576 On ch=15 n=55 v=69
15600 Off ch=15 n=55 v=0
15600 On ch=15 n=59 v=92
15624 Off ch=15 n=59 v=0
15624 On ch=15 n=55 v=70
15648 On ch=15 n=52 v=78
15648 Off ch=15 n=55 v=0
15672 Off ch=15 n=52 v=0
15672 On ch=15 n=55 v=61
15696 On ch=15 n=59 v=75
15696 Off ch=15 n=55 v=0
15720 Off ch=15 n=59 v=0
15720 On ch=15 n=55 v=69
15744 Off ch=15 n=55 v=0
15744 On ch=15 n=52 v=40
15768 Off ch=15 n=52 v=0
15768 On ch=15 n=55 v=59
15792 Off ch=15 n=55 v=0
15792 On ch=15 n=59 v=92
15816 Off ch=15 n=59 v=0
15816 On ch=15 n=55 v=75
15840 On ch=15 n=52 v=72
15840 Off ch=15 n=55 v=0
15864 On ch=15 n=55 v=65
15864 Off ch=15 n=52 v=0
15888 Off ch=15 n=55 v=0
15888 On ch=15 n=59 v=88
15912 Off ch=15 n=59 v=0
15912 On ch=15 n=55 v=64
15936 Off ch=15 n=55 v=0
15936 On ch=15 n=52 v=48
15960 On ch=15 n=55 v=57
15960 Off ch=15 n=52 v=0
15984 Off ch=15 n=55 v=0
15984 On ch=15 n=59 v=84
16008 Off ch=15 n=59 v=0
16008 On ch=15 n=55 v=69
16032 On ch=15 n=52 v=76
16032 On ch=15 n=59 v=70
16032 Off ch=15 n=55 v=0
16032 On ch=15 n=55 v=77
16056 On ch=15 n=55 v=56
16056 Off ch=15 n=59 v=0
16080 On ch=15 n=59 v=75
16080 Off ch=15 n=55 v=0
16104 On ch=15 n=55 v=69
16104 Off ch=15 n=59 v=0
16128 On ch=15 n=71 v=53
16128 On ch=15 n=66 v=60
16128 On ch=15 n=74 v=57
16128 On ch=15 n=59 v=69
16128 On ch=15 n=78 v=54
16128 On ch=15 n=47 v=74
16212 Off ch=15 n=66 v=0
16212 Off ch=15 n=47 v=0
16212 Off ch=15 n=55 v=0
16212 Off ch=15 n=55 v=0
16212 Off ch=15 n=78 v=0
16212 Off ch=15 n=59 v=0
16212 Off ch=15 n=52 v=0
16212 Off ch=15 n=71 v=0
16212 Off ch=15 n=74 v=0
16224 On ch=15 n=74 v=57
16224 On ch=15 n=66 v=60
16224 On ch=15 n=78 v=54
16224 On ch=15 n=59 v=69
16224 On ch=15 n=71 v=53
16224 On ch=15 n=47 v=74
16320 Off ch=15 n=74 v=0
16320 Off ch=15 n=66 v=0
16320 Off ch=15 n=78 v=0
16320 Off ch=15 n=59 v=0
16320 Off ch=15 n=47 v=0
16320 Off ch=15 n=71 v=0
16464 On ch=15 n=74 v=57
16464 On ch=15 n=71 v=53
16464 On ch=15 n=59 v=69
16464 On ch=15 n=47 v=74
16464 On ch=15 n=66 v=60
16464 On ch=15 n=78 v=54
16512 On ch=15 n=71 v=53
16512 On ch=15 n=74 v=57
16512 Off ch=15 n=74 v=0
16512 Off ch=15 n=78 v=0
16512 Off ch=15 n=71 v=0
16512 On ch=15 n=47 v=74
16512 On ch=15 n=59 v=69
16512 Off ch=15 n=59 v=0
16512 Off ch=15 n=47 v=0
16512 Off ch=15 n=66 v=0
16512 On ch=15 n=78 v=54
16512 On ch=15 n=66 v=60
16608 Off ch=15 n=74 v=0
16608 Off ch=15 n=71 v=0
16608 Off ch=15 n=78 v=0
16608 On ch=15 n=55 v=63
16608 On ch=15 n=67 v=50
16608 On ch=15 n=43 v=62
16608 On ch=15 n=70 v=48
16608 On ch=15 n=74 v=47
16608 On ch=15 n=78 v=49
16608 Off ch=15 n=47 v=0
16608 Off ch=15 n=66 v=0
16608 Off ch=15 n=59 v=0
16704 Off ch=15 n=70 v=0
16704 On ch=15 n=66 v=57
16704 Off ch=15 n=43 v=0
16704 On ch=15 n=74 v=54
16704 Off ch=15 n=74 v=0
16704 On ch=15 n=78 v=52
16704 On ch=15 n=47 v=48
16704 Off ch=15 n=67 v=0
16704 On ch=15 n=59 v=48
16704 Off ch=15 n=78 v=0
16704 On ch=15 n=71 v=75
16704 Off ch=15 n=55 v=0
16896 On ch=15 n=47 v=52
16920 Off ch=15 n=47 v=0
16920 On ch=15 n=50 v=92
16944 On ch=15 n=54 v=109
16944 Off ch=15 n=50 v=0
16968 Off ch=15 n=54 v=0
16968 On ch=15 n=50 v=65
16980 Off ch=15 n=78 v=0
16980 Off ch=15 n=47 v=0
16980 Off ch=15 n=74 v=0
16980 Off ch=15 n=66 v=0
16980 Off ch=15 n=71 v=0
16980 Off ch=15 n=59 v=0
16992 Off ch=15 n=50 v=0
16992 On ch=15 n=47 v=60
17016 On ch=15 n=50 v=72
17016 Off ch=15 n=47 v=0
17040 Off ch=15 n=50 v=0
17040 On ch=15 n=54 v=98
17064 Off ch=15 n=54 v=0
17064 On ch=15 n=50 v=81
17088 Off ch=15 n=50 v=0
17088 On ch=15 n=47 v=65
17112 Off ch=15 n=47 v=0
17112 On ch=15 n=50 v=69
17136 Off ch=15 n=50 v=0
17136 On ch=15 n=54 v=92
17160 Off ch=15 n=54 v=0
17160 On ch=15 n=50 v=70
17184 Off ch=15 n=50 v=0
17184 On ch=15 n=47 v=78
17208 Off ch=15 n=47 v=0
17208 On ch=15 n=50 v=61
17232 Off ch=15 n=50 v=0
17232 On ch=15 n=54 v=75
17256 On ch=15 n=50 v=69
17256 Off ch=15 n=54 v=0
17280 Off ch=15 n=50 v=0
17280 On ch=15 n=47 v=40
17304 Off ch=15 n=47 v=0
17304 On ch=15 n=50 v=59
17328 On ch=15 n=54 v=92
17328 Off ch=15 n=50 v=0
17352 On ch=15 n=50 v=75
17352 Off ch=15 n=54 v=0
17376 On ch=15 n=47 v=72
17376 Off ch=15 n=50 v=0
17400 Off ch=15 n=47 v=0
17400 On ch=15 n=50 v=65
17424 On ch=15 n=54 v=88
17424 Off ch=15 n=50 v=0
17448 On ch=15 n=50 v=64
17448 Off ch=15 n=54 v=0
17472 Off ch=15 n=50 v=0
17472 On ch=15 n=47 v=48
17496 Off ch=15 n=47 v=0
17496 On ch=15 n=50 v=57
17520 Off ch=15 n=50 v=0
17520 On ch=15 n=54 v=84
17544 Off ch=15 n=54 v=0
17544 On ch=15 n=50 v=69
17568 On ch=15 n=47 v=76
17568 On ch=15 n=50 v=77
17568 On ch=15 n=54 v=70
17568 Off ch=15 n=50 v=0
17592 Off ch=15 n=54 v=0
17592 On ch=15 n=50 v=56
17616 On ch=15 n=54 v=75
17616 Off ch=15 n=50 v=0
17640 Off ch=15 n=54 v=0
17640 On ch=15 n=50 v=69
17748 Off ch=15 n=47 v=0
17748 Off ch=15 n=50 v=0
17748 Off ch=15 n=50 v=0
17748 Meta TrkEnd
TrkEnd
MTrk
0 Meta TrkName "16: greatdictatorspeech"
0 Meta InstrName "16: greatdictatorspeech"
11520 On ch=16 n=48 v=127
12372 Off ch=16 n=48 v=0
12372 Meta TrkEnd
TrkEnd
MTrk
0 Meta TrkName "17: biab-dave-rev-6"
0 Meta InstrName "17: biab-dave-rev-6"
11328 On ch=1 n=60 v=127
11604 Off ch=1 n=60 v=0
11604 Meta TrkEnd
TrkEnd
